<svg xmlns="http://www.w3.org/2000/svg" viewBox="0 0 24 24" fill="none" stroke="#121c30de" stroke-width="2" stroke-linecap="round" stroke-linejoin="round">
    <path d="M23 3a10.9 10.9 0 0 1-3.14 1.53A4.48 4.48 0 0 0 22.43.36a9.03 9.03 0 0 1-2.83 1.09A4.48 4.48 0 0 0 16.85 0c-2.5 0-4.48 2-4.48 4.48a5.2 5.2 0 0 0 .11 1.02A12.94 12.94 0 0 1 1.64 1.15a4.5 4.5 0 0 0 1.39 5.98 4.46 4.46 0 0 1-2.03-.56v.06a4.48 4.48 0 0 0 3.6 4.39 4.53 4.53 0 0 1-1.18.16 4.62 4.62 0 0 1-.84-.08 4.48 4.48 0 0 0 4.18 3.12A9 9 0 0 1 .99 19.1 12.94 12.94 0 0 0 8.07 21c9.64 0 14.91-8 14.91-14.93 0-.22 0-.45-.02-.67A10.74 10.74 0 0 0 23 3z"/>
</svg>